<?xml version="1.0" encoding="UTF-8" standalone="no"?>
<svg width="1440px" height="1024px" viewBox="0 0 1440 1024" version="1.1" xmlns="http://www.w3.org/2000/svg" xmlns:xlink="http://www.w3.org/1999/xlink">
    <!-- Generator: Sketch 40 (33762) - http://www.bohemiancoding.com/sketch -->
    <title>8 -Post-Ops Checklist</title>
    <desc>Created with Sketch.</desc>
    <defs></defs>
    <g id="Mockups---No-bg" stroke="none" stroke-width="1" fill="none" fill-rule="evenodd">
        <g id="8--Post-Ops-Checklist">
            <g id="Copy" transform="translate(267.000000, 202.000000)" font-family="OpenSans, Open Sans" fill="#F6F6F6" font-weight="normal">
                <text id="Post-Ops-Checklist" font-size="56">
                    <tspan x="218.890625" y="60">Post-Ops Checklist</tspan>
                </text>
                <text id="Please-confirm-proce" font-size="32">
                    <tspan x="222.078125" y="140">Please confirm procedure name </tspan>
                    <tspan x="71.703125" y="183">Has instrument and needles count been completed?</tspan>
                    <tspan x="274.765625" y="226">Is the specimen labelled?</tspan>
                    <tspan x="0.1171875" y="269">Were there any equipment problems and were they resolved?</tspan>
                </text>
            </g>
            <g id="Proceed" transform="translate(495.000000, 578.000000)">
                <text id="Swipe-to-print-check" font-family="OpenSans, Open Sans" font-size="42" font-weight="normal" fill="#F6F6F6">
                    <tspan x="0.416503906" y="45">Swipe to print checklist</tspan>
                </text>
                <g id="Icons-/-Long-Arrow" transform="translate(99.000000, 78.000000)" fill-opacity="0.7" fill="#D8D8D8">
                    <path d="M243.358257,38.0745636 L2.49457766,38.0745636 C1.11686046,38.0745636 0,36.9649016 0,35.5745636 C0,34.1938518 1.11460686,33.0745636 2.49457766,33.0745636 L242.805321,33.0745636 L214.080503,4.34974537 C213.101041,3.37028386 213.091681,1.79162386 214.074798,0.808506472 C215.051109,-0.167804258 216.62756,-0.174265255 217.616037,0.814211469 L250.838646,34.0368202 C251.397811,34.5959858 251.640805,35.3504401 251.563464,36.0778862 C251.521879,36.6568449 251.278249,37.2256394 250.830237,37.6736512 L217.607629,70.8962599 C216.628167,71.8757214 215.049507,71.8850823 214.06639,70.9019649 C213.090079,69.9256542 213.083618,68.3492027 214.072095,67.360726 L243.358257,38.0745636 Z" id="Combined-Shape"></path>
                </g>
            </g>
        </g>
    </g>
</svg>