<?xml version="1.0" encoding="UTF-8" standalone="no"?>
<svg width="1440px" height="1024px" viewBox="0 0 1440 1024" version="1.1" xmlns="http://www.w3.org/2000/svg" xmlns:xlink="http://www.w3.org/1999/xlink">
    <!-- Generator: Sketch 40 (33762) - http://www.bohemiancoding.com/sketch -->
    <title>9 -Surgery Complete</title>
    <desc>Created with Sketch.</desc>
    <defs></defs>
    <g id="Mockups---No-bg" stroke="none" stroke-width="1" fill="none" fill-rule="evenodd">
        <g id="9--Surgery-Complete">
            <g id="Copy" transform="translate(498.000000, 255.000000)">
                <text id="Surgery-Complete" font-family="OpenSans, Open Sans" font-size="56" font-weight="normal" fill="#F6F6F6">
                    <tspan x="-11.5078125" y="221">Surgery Complete</tspan>
                </text>
                <g id="Icons-/-Check" transform="translate(159.000000, 0.000000)">
                    <g id="ic_check_circle_black_24px">
                        <g id="Group">
                            <polygon id="Shape" points="0 0 128 0 128 128 0 128"></polygon>
                            <path d="M64,10.6666667 C34.56,10.6666667 10.6666667,34.56 10.6666667,64 C10.6666667,93.44 34.56,117.333333 64,117.333333 C93.44,117.333333 117.333333,93.44 117.333333,64 C117.333333,34.56 93.44,10.6666667 64,10.6666667 L64,10.6666667 Z M53.3333333,90.6666667 L26.6666667,64 L34.1866667,56.48 L53.3333333,75.5733333 L93.8133333,35.0933333 L101.333333,42.6666667 L53.3333333,90.6666667 L53.3333333,90.6666667 Z" id="Shape" fill="#2AB777"></path>
                        </g>
                    </g>
                </g>
            </g>
        </g>
    </g>
</svg>