<?xml version="1.0" encoding="UTF-8" standalone="no"?>
<svg width="77px" height="77px" viewBox="0 0 77 77" version="1.1" xmlns="http://www.w3.org/2000/svg" xmlns:xlink="http://www.w3.org/1999/xlink">
    <!-- Generator: sketchtool 40 (33762) - http://www.bohemiancoding.com/sketch -->
    <title>6CDC9A58-9BCE-46CC-9855-A33C922AF6E7</title>
    <desc>Created with sketchtool.</desc>
    <defs></defs>
    <g id="Mockups" stroke="none" stroke-width="1" fill="none" fill-rule="evenodd">
        <g id="3---Patient-Info" transform="translate(-1144.000000, -414.000000)">
            <g id="Cuts" transform="translate(1093.000000, 390.000000)">
                <g id="Icons-/-Arrow">
                    <rect id="Rectangle-3" x="0" y="0" width="128" height="128"></rect>
                    <path d="M90.1152257,40.5039803 C90.1152277,40.5026538 90.1152288,40.501327 90.1152288,40.5 C90.1152288,39.1096621 88.9977009,38 87.6191604,38 L40.4960684,38 C39.1126109,38 38,39.1192881 38,40.5 C38,41.8903379 39.1175279,43 40.4960684,43 L85.1152288,43 L85.1152288,87.6310512 C85.1152288,89.0145086 86.2345169,90.1271195 87.6152288,90.1271195 C89.0055667,90.1271195 90.1152288,89.0095917 90.1152288,87.6310512 L90.1152288,40.5079592 C90.1152288,40.5066321 90.1152277,40.5053054 90.1152257,40.5039789 Z" id="Combined-Shape" fill-opacity="0.7" fill="#F6F6F6" fill-rule="evenodd" transform="translate(64.057614, 64.063560) rotate(45.000000) translate(-64.057614, -64.063560) "></path>
                </g>
            </g>
        </g>
    </g>
</svg>