<?xml version="1.0" encoding="UTF-8" standalone="no"?>
<svg width="263px" height="82px" viewBox="0 0 263 82" version="1.1" xmlns="http://www.w3.org/2000/svg" xmlns:xlink="http://www.w3.org/1999/xlink">
    <!-- Generator: sketchtool 40 (33762) - http://www.bohemiancoding.com/sketch -->
    <title>FFCEE50E-E9FC-41BA-8191-EFC4C9075463</title>
    <desc>Created with sketchtool.</desc>
    <defs></defs>
    <g id="Mockups" stroke="none" stroke-width="1" fill="none" fill-rule="evenodd" fill-opacity="0.7">
        <g id="2--Myo---Detected" transform="translate(-590.000000, -651.000000)" fill="#D8D8D8">
            <g id="Arrow" transform="translate(590.000000, 651.000000)">
                <g id="Icons-/-Long-Arrow" transform="translate(4.000000, 5.000000)">
                    <path d="M243.358257,38.0745636 L2.49457766,38.0745636 C1.11686046,38.0745636 0,36.9649016 0,35.5745636 C0,34.1938518 1.11460686,33.0745636 2.49457766,33.0745636 L242.805321,33.0745636 L214.080503,4.34974537 C213.101041,3.37028386 213.091681,1.79162386 214.074798,0.808506472 C215.051109,-0.167804258 216.62756,-0.174265255 217.616037,0.814211469 L250.838646,34.0368202 C251.397811,34.5959858 251.640805,35.3504401 251.563464,36.0778862 C251.521879,36.6568449 251.278249,37.2256394 250.830237,37.6736512 L217.607629,70.8962599 C216.628167,71.8757214 215.049507,71.8850823 214.06639,70.9019649 C213.090079,69.9256542 213.083618,68.3492027 214.072095,67.360726 L243.358257,38.0745636 Z" id="Combined-Shape"></path>
                </g>
            </g>
        </g>
    </g>
</svg>