<?xml version="1.0" encoding="UTF-8" standalone="no"?>
<svg width="128px" height="128px" viewBox="0 0 128 128" version="1.1" xmlns="http://www.w3.org/2000/svg" xmlns:xlink="http://www.w3.org/1999/xlink">
    <!-- Generator: sketchtool 40 (33762) - http://www.bohemiancoding.com/sketch -->
    <title>28A2B815-3530-48E2-8527-3370E209A2CD</title>
    <desc>Created with sketchtool.</desc>
    <defs></defs>
    <g id="Mockups" stroke="none" stroke-width="1" fill="none" fill-rule="evenodd">
        <g id="1---Myo---Detect" transform="translate(-657.000000, -255.000000)">
            <g id="Copy" transform="translate(457.000000, 255.000000)">
                <g id="Icons-/-Loading" transform="translate(200.000000, 0.000000)">
                    <g id="ic_restore_black_24px">
                        <g id="Group">
                            <polygon id="Shape" points="0 0 128 0 128 128 0 128"></polygon>
                            <path d="M26.6666667,64 C26.6666667,43.36 43.36,26.6666667 64,26.6666667 C84.64,26.6666667 101.333333,43.36 101.333333,64 C101.333333,84.64 84.64,101.333333 64,101.333333 C53.7066667,101.333333 44.3733333,97.12 37.6533333,90.3466667 L30.08,97.92 C38.7733333,106.613333 50.72,112 64,112 C90.5066667,112 112,90.5066667 112,64 C112,37.4933333 90.5066667,16 64,16 C37.4933333,16 16,37.4933333 16,64 L16,64" id="Shape" fill="#308AF4"></path>
                        </g>
                    </g>
                </g>
            </g>
        </g>
    </g>
</svg>